<?xml version="1.0" standalone="no"?>
<!DOCTYPE svg PUBLIC "-//W3C//DTD SVG 20010904//EN"
 "http://www.w3.org/TR/2001/REC-SVG-20010904/DTD/svg10.dtd">
<svg version="1.0" xmlns="http://www.w3.org/2000/svg"
 width="100.000000pt" height="100.000000pt" viewBox="0 0 100.000000 100.000000"
 preserveAspectRatio="xMidYMid meet">

<g transform="translate(0.000000,100.000000) scale(0.100000,-0.100000)"
fill="#000000" stroke="none">
<path d="M234 614 c3 -9 7 -37 7 -62 2 -45 2 -46 8 -12 l6 35 12 -32 c10 -28
17 -33 42 -33 17 0 31 2 31 4 0 2 -10 29 -21 60 -21 53 -24 56 -56 56 -28 0
-34 -3 -29 -16z"/>
<path d="M421 574 c-23 -62 -21 -88 3 -33 l14 34 1 -32 c1 -30 4 -33 31 -33
29 0 30 1 30 48 0 26 5 53 12 60 9 9 3 12 -29 12 -40 0 -40 -1 -62 -56z"/>
<path d="M619 615 c-31 -17 -59 -57 -59 -85 0 -15 7 -20 29 -20 25 0 30 5 35
36 14 72 84 100 125 48 l21 -27 0 26 c0 13 -7 28 -16 31 -28 11 -108 6 -135
-9z"/>
<path d="M241 403 c0 -17 -7 -34 -13 -36 -7 -3 0 -6 16 -6 22 -1 26 2 18 12
-5 6 -12 23 -15 37 -4 22 -4 21 -6 -7z"/>
<path d="M323 398 c18 -43 33 -45 46 -7 6 18 11 34 11 35 0 2 -16 4 -35 4
l-35 0 13 -32z"/>
<path d="M440 407 c0 -13 -5 -28 -12 -35 -9 -9 0 -12 42 -12 42 0 51 3 42 12
-7 7 -12 22 -12 35 0 19 -5 23 -30 23 -25 0 -30 -4 -30 -23z"/>
<path d="M570 422 c0 -16 47 -53 81 -62 50 -15 69 -11 31 6 -18 8 -38 25 -44
39 -8 18 -19 25 -40 25 -15 0 -28 -4 -28 -8z"/>
<path d="M762 408 c-6 -14 -19 -31 -29 -37 -17 -10 -16 -10 3 -11 28 0 47 23
42 52 -4 23 -5 23 -16 -4z"/>
</g>
</svg>
